<svg id="Layer_1" xmlns="http://www.w3.org/2000/svg" viewBox="0 0 342 90"><style>.st0{fill:#408fcd}.st3{fill:#fff}</style><switch><g><path class="st0" d="M292.4 22c-1.3 0-2.5.9-2.5 2.4 0 1.4 1.2 2.4 2.5 2.4s2.6-.9 2.6-2.4-1.2-2.4-2.6-2.4z"/><path d="M179.5 39.4h-10.1c.4-2.9 2.3-5.4 5.5-5.4 3 0 4.5 2.4 4.6 4.9v.5zm5.8 2.5v-.7c0-3.3-.6-6.4-2.9-8.8-1.7-1.8-4.2-2.9-7.2-2.9-7.3 0-12.2 5.1-12.2 12.5 0 7.6 4.6 12.6 12.3 12.6 2.6 0 5.8-.5 8.2-1.6.6-.2.8-.5.8-.8 0-.1 0-.3-.1-.6l-.7-2.5c-.1-.4-.3-.6-.7-.6-.2 0-.3.1-.5.1-1.8.7-4 1.2-6 1.2-3.9 0-6.6-2.6-7-6.4h14.4c1.2-.1 1.6-.3 1.6-1.5zm-24 10.7V40.2c0-3.1-.2-5.3-1.2-7.1-1-1.9-3.3-3.7-6.9-3.7-3 0-6.2 1.1-8.4 3.2-1.1-1.9-3.2-3.2-6.2-3.2-2.6 0-5.2 1-7.2 2.8V31c0-.7-.5-.9-1.2-.9H127c-.7 0-1.2.3-1.2 1.1v21.4c0 .9.4 1.2 1.3 1.2h3.4c.8 0 1.2-.3 1.2-1.2V37c1.6-1.4 3.5-2.5 5.4-2.5 3 0 3.5 2.1 3.5 4.7v13.4c0 .9.4 1.2 1.3 1.2h3.2c.8 0 1.2-.3 1.2-1.2v-8.2c0-.7-.1-7.3-.2-7.7 1.5-1.2 3.7-2.2 5.5-2.2 3 0 3.7 2 3.7 4.7v13.4c0 .9.4 1.2 1.3 1.2h3.4c.9 0 1.3-.3 1.3-1.2zm-38.1 0V31.2c0-.9-.4-1.1-1.2-1.1h-3.4c-.8 0-1.3.3-1.3 1.1v21.4c0 .9.4 1.2 1.3 1.2h3.4c.8 0 1.2-.3 1.2-1.2zm.3-28.8c0-2-1.6-3.1-3.3-3.1-1.7 0-3.3 1.2-3.3 3.1 0 2 1.7 3 3.3 3 1.6.1 3.3-1.1 3.3-3zm-8.1 6.5c0-.4-.1-.5-.5-.6-.4-.1-1-.2-1.4-.2-2.7 0-4.4 1.2-5.9 3.1V31c0-.7-.4-.9-1.2-.9h-3.1c-.7 0-1.2.2-1.2 1.2v21.3c0 .8.4 1.2 1.2 1.2h3.6c.8 0 1.2-.4 1.2-1.2V37c1.2-1.5 3-2.4 4.7-2.4.4 0 .9.1 1.3.1.6 0 .8-.2.9-.6l.5-3.5c-.1-.1-.1-.2-.1-.3zm-21.4.5c0 4.2-2.5 6.2-6.6 6.2h-2.9V24.8H87c4.2 0 7 1.6 7 6zm6.3-.2c0-2.6-.9-5.1-2.5-7-2.4-2.7-6.2-3.7-11.4-3.7h-7.1c-.9 0-1.2.3-1.2 1.3v31.3c0 1 .4 1.3 1.2 1.3h3.9c.9 0 1.2-.4 1.2-1.2V41.8c.3.1 2.5.1 2.9.1 7.3 0 13-3.7 13-11.3z" fill-rule="evenodd" clip-rule="evenodd" fill="#fff"/><path class="st0" d="M288 50.9c-.1-.3-.3-.5-.6-.5h-.3c-.8.2-2 .6-3.1.6-1.3 0-2.2-.4-2.7-1-.7-.8-.8-2.1-.8-3.7V33.1h5.7c.5 0 .7-.1.7-.6v-1.7c0-.5-.2-.6-.7-.6h-5.8v-6c0-.5-.2-.9-.7-.9h-.2l-2.4.3c-.6.1-.8.3-.8 1v5.6h-2.8c-.4 0-.6.2-.6.7v1.5c0 .6.1.7.7.7h2.7v12.8c0 3 .1 5 1.5 6.6 1.1 1.2 3.2 1.8 5.3 1.8 1.7 0 3.4-.4 4.6-.9.4-.1.7-.4.7-.8v-.2l-.4-1.5zM271.8 50.9h-.3c-.4 0-.6-.1-.8-.4-.2-.3-.2-1.1-.2-2.2V31.1c0-.6-.3-.9-.9-.9h-2.2c-.5 0-.9.2-.9.8v1.6c-1.5-2-4.1-3-6.6-3-5.6 0-10.4 4.6-10.4 12.8 0 6.2 3 11.9 9.8 11.9 3 0 6.2-2 7.5-4.1 0 2 1 3.6 3.2 3.6h2.1c.5 0 .7-.1.7-.6v-1.7c-.3-.5-.5-.6-1-.6zm-5.5-5c-.9 2.5-3.4 5-6.5 5-3.5 0-6-3.3-6-8.7 0-5.8 2.8-9.2 6.6-9.2 2.4 0 4.8 1.3 5.9 3.5v9.4zM218.7 29.6c-7.3 0-11.3 5.4-11.3 12.3 0 7 3.4 12.4 11 12.4 7.3 0 11.3-5.4 11.3-12.4.1-7-3.4-12.3-11-12.3zm-.2 21.5c-5.2 0-6.7-4.8-6.7-9.3 0-4.3 1.6-9 6.9-9 5.1 0 6.8 4.6 6.8 9.2s-1.9 9.1-7 9.1z"/><path class="st0" d="M249.2 50.4c-.1-.3-.2-.5-.5-.5-.1 0-.2 0-.4.1-1.6.7-3.4 1.2-5.5 1.2-5.2 0-7.4-4.3-7.4-9.3 0-5.5 2.9-9 7.6-9 1.9 0 3.6.5 5.1 1.2.2.1.3.1.4.1.3 0 .4-.2.5-.6l.4-1.6c.1-.1.1-.2.1-.4 0-.3-.1-.5-.5-.6-1.7-.9-4.2-1.4-6.3-1.4-7.4 0-11.7 5.2-11.7 12.4 0 7.3 3.7 12.3 11.4 12.3 2.3 0 4.5-.4 6.6-1.4.4-.2.6-.3.6-.6 0-.2-.1-.3-.1-.5l-.3-1.4zM206.5 50.2h-12.3V21.1c0-.7-.3-1-1-1h-2.6c-.6 0-.9.4-.9 1v31.7c0 .8.3 1.1 1 1.1h16c.6 0 .8-.2.8-.8v-2c-.1-.7-.4-.9-1-.9zM307.8 29.6c-7.3 0-11.3 5.4-11.3 12.3 0 7 3.4 12.4 11 12.4 7.3 0 11.3-5.4 11.3-12.4s-3.4-12.3-11-12.3zm-.2 21.5c-5.2 0-6.7-4.8-6.7-9.3 0-4.3 1.6-9 6.9-9 5.1 0 6.8 4.6 6.8 9.2-.1 4.6-1.9 9.1-7 9.1zM333 29.6c-2.8 0-5.8 1-8 2.9l-.1-1.5c0-.6-.3-.9-.9-.9h-2.2c-.7 0-.9.3-.9 1v21.7c0 .6.3 1 .9 1h2.3c.6 0 .9-.3.9-1V35.9c1.7-1.6 4.5-2.8 6.8-2.8 3.9 0 4.8 2.5 4.8 6v13.7c0 .7.3 1 .9 1h2.3c.7 0 .9-.3.9-1V38.4c.1-5.4-2.1-8.8-7.7-8.8zM293.6 30.2h-2.3c-.6 0-1 .3-1 1v21.7c0 .7.3 1 1 1h2.3c.6 0 .9-.3.9-1V31.1c0-.7-.3-.9-.9-.9z"/><path d="M61.4 61c6-6.3 9.7-14.7 9.7-24.1C71 17.6 55.4 2 36.1 2 16.9 2 1.2 17.6 1.2 36.9c0 7.8 2.6 15 6.9 20.8 1 1.2 1.3-.1 1.4-.9V36.9c0-7.4 3-14 7.8-18.9 4.8-4.8 11.5-7.8 18.9-7.8 7.4 0 14 3 18.9 7.8 4.8 4.8 7.8 11.5 7.8 18.9 0 7.4-3 14-7.8 18.9-1.7 1.7-3.6 3.1-5.6 4.3-3.9 2.3-8.5 3.6-13.3 3.6-3.8 0-7.5-.8-10.8-2.3-.5-.2-.5-.7-.5-.7v-7c0-.2.2-.5.6-.3 3.1 2 6.7 3.1 10.6 3.1 10.8 0 19.5-8.7 19.5-19.5s-8.7-19.5-19.5-19.5S16.6 26.2 16.6 37v27.7c.1.9.6 1.6 1.1 1.9h.1c5.3 3.3 11.6 5.2 18.4 5.2 9.5 0 18.1-3.8 24.4-10l.3-.3.5-.5zM36.1 25.7c6.2 0 11.3 5 11.3 11.3 0 6.2-5 11.3-11.3 11.3-6.2 0-11.3-5-11.3-11.3 0-6.3 5.1-11.3 11.3-11.3z" fill-rule="evenodd" clip-rule="evenodd" fill="#408fcd"/><path class="st3" d="M79.5 83.4h-1.8V67.8h9.1v1.6h-7.2v5.3h6.8v1.6h-6.8v7.1zM89.6 72.4h1.8v11h-1.8v-11zm1.7-4.7v1.7h-1.6v-1.7h1.6zM96.8 83.4H95V75v-1-.9-.8h1.8v1.5c.4-.6.9-1.1 1.6-1.4.6-.3 1.3-.4 2.1-.4s1.5.1 2 .4c.5.3.9.6 1.2 1.1.3.5.5 1 .6 1.7s.2 1.4.2 2.2v5.9h-1.8v-5.7c0-.6 0-1.2-.1-1.7s-.2-.9-.3-1.3c-.2-.4-.4-.6-.8-.8-.3-.2-.8-.3-1.4-.3-.5 0-1 .1-1.4.3-.4.2-.8.5-1.1.8-.3.3-.5.6-.7.9-.2.3-.2.6-.2.9v7zM116.1 83.4v-1.6c-.5.7-1 1.1-1.6 1.4s-1.3.4-2.2.4c-.9 0-1.6-.1-2.2-.4-.6-.3-1.1-.7-1.6-1.2s-.7-1.1-.9-1.8c-.2-.7-.3-1.4-.3-2.2 0-.8.1-1.5.3-2.2.2-.7.5-1.3 1-1.9.4-.5 1-1 1.6-1.3.6-.3 1.4-.5 2.2-.5.8 0 1.5.2 2.1.5s1.2.7 1.6 1.3v-6.5h1.8v16.1h-1.8zm-3.6-1.1c.6 0 1.1-.1 1.5-.3.4-.2.8-.5 1.1-1 .3-.4.5-.9.7-1.5.2-.6.2-1.2.2-1.9 0-.6-.1-1.1-.2-1.6-.2-.5-.4-.9-.7-1.3-.3-.3-.7-.6-1.1-.8-.4-.2-.9-.3-1.4-.3-.6 0-1.1.1-1.6.4-.4.2-.8.6-1.1 1-.3.4-.5.9-.6 1.4-.1.5-.2 1.1-.2 1.7 0 .6.1 1.1.2 1.6s.3 1 .6 1.4.6.7 1.1.9c.4.1.9.3 1.5.3zM126.2 72.4h1.9l3.6 9.2 3.7-9.2h1.9l-4.9 11.8c-.2.5-.4.9-.7 1.3-.3.4-.6.8-.9 1.1-.4.3-.7.6-1.2.8-.4.2-.9.4-1.4.5l-1-1.2c.6-.2 1.1-.4 1.5-.6.4-.2.7-.5 1-.7.3-.3.4-.5.6-.8s.3-.5.3-.8l.2-.5-4.6-10.9zM144.1 72.1c.9 0 1.7.2 2.4.5s1.3.7 1.7 1.2c.5.5.8 1.1 1.1 1.8s.4 1.5.4 2.3c0 .8-.1 1.5-.4 2.2s-.6 1.3-1.1 1.8c-.5.5-1.1.9-1.8 1.3-.7.3-1.5.5-2.4.5-.9 0-1.7-.2-2.4-.5s-1.3-.7-1.8-1.2-.8-1.1-1.1-1.8-.4-1.4-.4-2.2.1-1.5.4-2.3c.3-.7.6-1.3 1.1-1.8s1.1-.9 1.8-1.2c.7-.4 1.5-.6 2.5-.6zm3.7 5.8c0-.6-.1-1.1-.2-1.7-.2-.5-.4-1-.7-1.4s-.7-.7-1.2-.9c-.5-.2-1-.3-1.7-.3-.6 0-1.2.1-1.6.4-.5.2-.9.6-1.2 1-.3.4-.6.9-.7 1.4-.2.5-.2 1.1-.2 1.7s.1 1.1.2 1.6c.2.5.4 1 .7 1.4.3.4.7.7 1.2.9.5.2 1 .3 1.7.3.6 0 1.2-.1 1.6-.4.5-.2.9-.6 1.2-1s.5-.9.7-1.4c.1-.4.2-1 .2-1.6zM160.1 72.4h1.8V82.1c0 .4 0 .9.1 1.3h-1.8v-1.5c-.8 1.1-2 1.7-3.6 1.7-.5 0-1-.1-1.4-.2-.4-.1-.8-.3-1.1-.5-.3-.2-.6-.5-.8-.8s-.4-.6-.5-.9c-.1-.3-.2-.7-.3-1-.1-.4-.1-.7-.1-1.1v-6.7h1.8v6.7c0 1 .2 1.8.7 2.3.4.5 1.1.8 2.1.8.5 0 1-.1 1.4-.3s.7-.4 1-.8c.3-.3.5-.7.6-1.1.1-.4.2-.9.2-1.3v-6.3zM167.3 83.4h-1.8V75v-1.4-1.3h1.8l.1 1.7c.3-.6.7-1.1 1.2-1.4s1.1-.5 1.7-.5c.4 0 .8 0 1.2.1v1.7c-.2-.1-.3-.1-.5-.2-.2 0-.4-.1-.7-.1-.4 0-.8.1-1.2.3-.4.2-.7.4-.9.7-.3.3-.4.7-.6 1.1s-.2 1-.2 1.5v6.2zM187.9 83.4v-1.6c-.5.7-1 1.1-1.6 1.4s-1.3.4-2.2.4c-.9 0-1.6-.1-2.2-.4-.6-.3-1.1-.7-1.6-1.2s-.7-1.1-.9-1.8c-.2-.7-.3-1.4-.3-2.2 0-.8.1-1.5.3-2.2.2-.7.5-1.3 1-1.9.4-.5 1-1 1.6-1.3.6-.3 1.4-.5 2.2-.5.8 0 1.5.2 2.1.5s1.2.7 1.6 1.3v-6.5h1.8v16.1h-1.8zm-3.5-1.1c.6 0 1.1-.1 1.5-.3.4-.2.8-.5 1.1-1 .3-.4.5-.9.7-1.5s.2-1.2.2-1.9c0-.6-.1-1.1-.2-1.6-.2-.5-.4-.9-.7-1.3-.3-.3-.7-.6-1.1-.8-.4-.2-.9-.3-1.4-.3-.6 0-1.1.1-1.6.4s-.8.6-1.1 1c-.3.4-.5.9-.6 1.4-.1.5-.2 1.1-.2 1.7 0 .6.1 1.1.2 1.6s.3 1 .6 1.4c.3.4.6.7 1.1.9.3.1.8.3 1.5.3zM195 83.4h-1.8V75v-1.4-1.3h1.8l.1 1.7c.3-.6.7-1.1 1.2-1.4s1.1-.5 1.7-.5c.4 0 .8 0 1.2.1v1.7c-.2-.1-.3-.1-.5-.2-.2 0-.4-.1-.7-.1-.4 0-.8.1-1.2.3-.4.2-.7.4-.9.7s-.4.7-.6 1.1-.2 1-.2 1.5v6.2zM210.2 82.2c-.6.5-1.3.9-2 1.1s-1.5.4-2.5.4c-.9 0-1.6-.1-2.3-.4-.7-.3-1.3-.7-1.7-1.2-.5-.5-.8-1.1-1.1-1.8s-.4-1.5-.4-2.3c0-.8.1-1.5.4-2.2s.6-1.3 1.1-1.8 1-.9 1.7-1.3c.7-.3 1.4-.5 2.3-.5.8 0 1.6.1 2.2.4.6.3 1.1.7 1.5 1.1s.7 1.1.9 1.7c.2.7.3 1.4.3 2.2v.6h-8.4v.5c0 .5.2 1 .3 1.5.2.4.4.8.7 1.1s.7.6 1.1.7c.4.2.9.3 1.5.3.8 0 1.5-.1 2.1-.4.6-.3 1.2-.6 1.7-1.1l.6 1.4zm-1.4-5.3v-.2c0-.5-.1-.9-.3-1.3s-.3-.7-.6-1c-.3-.3-.6-.5-.9-.7-.4-.2-.8-.2-1.2-.2-.5 0-1 .1-1.4.3-.4.2-.7.4-1 .7-.3.3-.5.7-.7 1.1s-.3.8-.4 1.3h6.5zM217.9 72.1c.5 0 .9 0 1.2.1.4.1.7.2 1 .3s.6.3.9.6.5.5.7.8l.1-1.5h1.8v11h-1.8v-1.5c-.2.2-.4.5-.6.7l-.9.6c-.3.2-.7.3-1.1.4-.4.1-.8.2-1.3.2-.6 0-1.2-.1-1.7-.2s-.9-.4-1.3-.7c-.4-.3-.7-.6-1-1s-.5-.8-.7-1.2-.3-.9-.4-1.4c-.1-.5-.1-.9-.1-1.4 0-.7.1-1.4.3-2.1.2-.7.5-1.3 1-1.8s1-1 1.7-1.3c.6-.4 1.3-.6 2.2-.6zm.2 10.2c.5 0 1-.1 1.4-.3s.8-.5 1.2-.9.6-.9.8-1.5c.2-.6.3-1.3.3-2 0-.6-.1-1.1-.3-1.6-.2-.5-.4-.9-.7-1.2s-.7-.6-1.2-.8-1-.3-1.6-.3c-.4 0-.8.1-1.2.2s-.7.3-.9.5l-.7.7c-.2.2-.4.6-.5.9-.1.3-.2.7-.3 1-.1.3-.1.7-.1 1 0 .3 0 .7.1 1 0 .3.1.7.2 1s.3.6.4.9.4.5.7.7c.3.2.6.4 1 .5.5.1.9.2 1.4.2zM228.6 72.4v1.5c.4-.6.9-1 1.5-1.3.6-.3 1.3-.4 2-.4.4 0 .8.1 1.2.2.4.1.7.2 1 .4.3.2.6.4.8.7s.4.6.5.9c.4-.8.9-1.3 1.6-1.6.7-.3 1.5-.5 2.4-.5.8 0 1.4.1 1.9.4.5.3.9.6 1.2 1 .3.4.5.9.6 1.4.1.5.2 1.1.2 1.6v6.8h-1.8v-6c0-.5 0-.9-.1-1.4s-.2-.9-.4-1.2c-.2-.4-.5-.7-.8-.9s-.8-.3-1.5-.3c-.5 0-.9.1-1.3.3-.4.2-.7.5-1 .8-.3.3-.5.7-.6 1.1-.1.4-.2.9-.2 1.3v6.3H234v-6.8c0-.4 0-.8-.2-1.2-.1-.4-.3-.7-.5-1-.2-.3-.5-.5-.8-.7s-.8-.2-1.2-.2-.9.1-1.3.3c-.4.2-.7.4-1 .8s-.5.7-.6 1.1c-.1.4-.2.9-.2 1.4v6.3h-1.8v-8.2-1.4-1.4h2.2zM255.5 67.4v6.5c.5-.6 1-1 1.6-1.3s1.3-.4 2.1-.4 1.5.1 2 .4c.5.3.9.6 1.2 1 .3.4.5.9.6 1.4s.2 1.1.2 1.6v6.8h-1.8v-6.7c0-.5 0-.9-.1-1.3s-.2-.7-.5-1c-.2-.3-.5-.5-.8-.6-.4-.2-.8-.2-1.3-.2s-1 .1-1.4.3c-.4.2-.7.4-1 .8-.3.3-.5.7-.6 1.1-.1.4-.2.9-.2 1.4v6.3h-1.8v-16h1.8zM271.6 72.1c.9 0 1.7.2 2.4.5s1.3.7 1.7 1.2.8 1.1 1.1 1.8.4 1.5.4 2.3c0 .8-.1 1.5-.4 2.2s-.6 1.3-1.1 1.8c-.5.5-1.1.9-1.8 1.3s-1.5.5-2.4.5c-.9 0-1.7-.2-2.4-.5s-1.3-.7-1.8-1.2-.8-1.1-1.1-1.8-.4-1.4-.4-2.2.1-1.5.4-2.3c.3-.7.6-1.3 1.1-1.8s1.1-.9 1.8-1.2c.8-.4 1.6-.6 2.5-.6zm3.7 5.8c0-.6-.1-1.1-.2-1.7s-.4-1-.7-1.4-.7-.7-1.2-.9c-.5-.2-1-.3-1.7-.3-.6 0-1.2.1-1.6.4-.5.2-.9.6-1.2 1-.3.4-.6.9-.7 1.4s-.2 1.1-.2 1.7.1 1.1.2 1.6.4 1 .7 1.4.7.7 1.2.9c.5.2 1 .3 1.7.3.6 0 1.2-.1 1.6-.4s.9-.6 1.2-1 .5-.9.7-1.4c.2-.4.2-1 .2-1.6zM281.8 72.4v1.5c.4-.6.9-1 1.5-1.3.6-.3 1.3-.4 2-.4.4 0 .8.1 1.2.2.4.1.7.2 1 .4.3.2.6.4.8.7s.4.6.5.9c.4-.8.9-1.3 1.6-1.6.7-.3 1.5-.5 2.4-.5.8 0 1.4.1 1.9.4.5.3.9.6 1.2 1 .3.4.5.9.6 1.4.1.5.2 1.1.2 1.6v6.8h-1.8v-6c0-.5 0-.9-.1-1.4s-.2-.9-.4-1.2c-.2-.4-.5-.7-.8-.9s-.8-.3-1.5-.3c-.5 0-.9.1-1.3.3-.4.2-.7.5-1 .8-.3.3-.5.7-.6 1.1-.1.4-.2.9-.2 1.3v6.3h-1.8v-6.8c0-.4 0-.8-.2-1.2-.1-.4-.3-.7-.5-1-.2-.3-.5-.5-.8-.7s-.8-.2-1.2-.2-.9.1-1.3.3c-.4.2-.7.4-1 .8s-.5.7-.6 1.1c-.1.4-.2.9-.2 1.4v6.3h-1.8v-8.2-1.4-1.4h2.2zM309.8 82.2c-.6.5-1.3.9-2 1.1s-1.5.4-2.5.4c-.9 0-1.6-.1-2.3-.4-.7-.3-1.3-.7-1.7-1.2-.5-.5-.8-1.1-1.1-1.8s-.4-1.5-.4-2.3c0-.8.1-1.5.4-2.2s.6-1.3 1.1-1.8 1-.9 1.7-1.3c.7-.3 1.4-.5 2.3-.5.8 0 1.6.1 2.2.4.6.3 1.1.7 1.5 1.1s.7 1.1.9 1.7c.2.7.3 1.4.3 2.2v.6h-8.4v.5c0 .5.2 1 .3 1.5.2.4.4.8.7 1.1s.7.6 1.1.7c.4.2.9.3 1.5.3.8 0 1.5-.1 2.1-.4.6-.3 1.2-.6 1.7-1.1l.6 1.4zm-1.4-5.3v-.2c0-.5-.1-.9-.3-1.3s-.3-.7-.6-1c-.3-.3-.6-.5-.9-.7-.4-.2-.8-.2-1.2-.2-.5 0-1 .1-1.4.3-.4.2-.7.4-1 .7-.3.3-.5.7-.7 1.1s-.3.8-.4 1.3h6.5z"/></g></switch></svg>